<?xml version="1.0" encoding="UTF-8"?>
<svg version="1.1" xmlns="http://www.w3.org/2000/svg" width="318" height="250">
<path d="M0 0 C0.66 0 1.32 0 2 0 C0.60784948 4.4986691 -1.17068876 8.60530974 -3.2578125 12.82421875 C-3.88942745 14.11257897 -4.52093475 15.40099196 -5.15234375 16.68945312 C-6.14236258 18.69834784 -7.13429644 20.70626706 -8.12841797 22.71313477 C-9.09325268 24.66439788 -10.05088836 26.61906699 -11.0078125 28.57421875 C-11.86850342 30.31578247 -11.86850342 30.31578247 -12.74658203 32.0925293 C-14.19794102 34.93146069 -14.19794102 34.93146069 -14 38 C-13.48840332 38.21503174 -12.97680664 38.43006348 -12.44970703 38.65161133 C8.87991612 47.70565386 34.97710992 59.95994236 47 81 C47 81.66 47 82.32 47 83 C43.6875 83.3125 43.6875 83.3125 40 83 C38.546875 80.80859375 38.546875 80.80859375 37 78 C24.08263436 61.82265403 4.44579391 49.11048222 -15 42 C-15.66 42 -16.32 42 -17 42 C-20.465 48.93 -20.465 48.93 -24 56 C-22.02 56.66 -20.04 57.32 -18 58 C-15.71019562 59.04425897 -13.43782623 60.12720502 -11.1796875 61.23828125 C-10.53104233 61.55563232 -9.88239716 61.8729834 -9.21409607 62.19995117 C-7.82215073 62.88105768 -6.43095055 63.56368881 -5.04043579 64.24771118 C-1.35559473 66.05962247 2.33540491 67.85885379 6.02734375 69.65625 C7.15028587 70.2030114 7.15028587 70.2030114 8.2959137 70.76081848 C16.87559455 74.92724877 25.52655251 78.93636322 34.18994141 82.92504883 C35.80328369 83.66791138 35.80328369 83.66791138 37.44921875 84.42578125 C38.84660278 85.06640503 38.84660278 85.06640503 40.2722168 85.7199707 C43.20741037 87.09732861 46.10560966 88.53908797 49 90 C49.2165625 88.7934375 49.2165625 88.7934375 49.4375 87.5625 C50 85 50 85 51 84 C53.53049402 83.92686433 56.03304837 83.90752473 58.5625 83.9375 C59.62887695 83.94426758 59.62887695 83.94426758 60.71679688 83.95117188 C62.47790013 83.96299136 64.23896036 83.98092737 66 84 C66 84.99 66 85.98 66 87 C69.63 87 73.26 87 77 87 C77.47179473 96.09515387 76.994948 102.76041976 73 111 C67.72 111 62.44 111 57 111 C57.53231295 119.78316363 59.66584259 123.66584259 66 130 C64.02 134.95 62.04 139.9 60 145 C49.46266189 143.68283274 49.46266189 143.68283274 45 138 C43.35941645 134.75270925 42.10227565 131.4642949 41 128 C40.34 128.70125 39.68 129.4025 39 130.125 C30.94982935 138.12981757 22.47164371 143.46890538 11 144 C11.45636536 142.603522 11.91519488 141.2078492 12.375 139.8125 C12.63023437 139.03519531 12.88546875 138.25789062 13.1484375 137.45703125 C14.02206922 134.93632321 14.99120398 132.46935722 16 130 C15.15179688 130.51949219 14.30359375 131.03898438 13.4296875 131.57421875 C-6.54841387 143.55188367 -6.54841387 143.55188367 -18 143 C-17.35823804 138.02634481 -16.04962417 133.02610481 -13 129 C-9.46677009 127.08574288 -5.89230252 125.9596539 -2 125 C-2.33 122.69 -2.66 120.38 -3 118 C-5.97 118.495 -5.97 118.495 -9 119 C-5.9813284 107.89018579 -2.73213435 101.69644933 6.8671875 95.2578125 C10.63959828 92.53904264 12.98776351 89.55958239 15.53515625 85.71484375 C17.2944657 83.65527882 18.41068656 83.53296729 21 83 C14.36436859 80.28681404 7.72547548 77.58173523 1.08422852 74.88232422 C-1.17564999 73.96264966 -3.43476926 73.0411072 -5.69311523 72.11767578 C-8.93536765 70.79230278 -12.18027222 69.47362469 -15.42578125 68.15625 C-16.43836502 67.74064819 -17.45094879 67.32504639 -18.49421692 66.89685059 C-19.43496567 66.5164563 -20.37571442 66.13606201 -21.3449707 65.74414062 C-22.17325882 65.40660767 -23.00154694 65.06907471 -23.85493469 64.72131348 C-26.0967405 63.84063561 -26.0967405 63.84063561 -29 64 C-30.44399533 65.98359972 -31.64772881 67.89042139 -32.8515625 70.015625 C-33.22265137 70.64952148 -33.59374023 71.28341797 -33.97607422 71.93652344 C-34.78003033 73.31264052 -35.57891746 74.69172851 -36.37335205 76.07336426 C-38.06620137 79.01725621 -39.78293097 81.94696566 -41.49813843 84.87786865 C-42.3791731 86.38415176 -43.25890013 87.89120042 -44.13735962 89.39898682 C-48.21817923 96.39984275 -52.40495182 103.33243277 -56.625 110.25 C-57.32304719 111.39648629 -58.02096357 112.54305224 -58.71875 113.68969727 C-60.11121949 115.97735179 -61.50448879 118.26451607 -62.8984375 120.55126953 C-66.12167427 125.83958029 -69.33830502 131.13190009 -72.55358887 136.42504883 C-73.61290634 138.16760616 -74.67398349 139.9090817 -75.73535156 141.65039062 C-79.30384093 147.51175129 -82.83010779 153.39425611 -86.296875 159.31640625 C-86.98982124 160.49404385 -87.68301332 161.67153682 -88.37646484 162.84887695 C-89.68303202 165.07240339 -90.98063394 167.30122869 -92.26806641 169.53588867 C-93.1369751 171.01085815 -93.1369751 171.01085815 -94.0234375 172.515625 C-94.52794434 173.38477539 -95.03245117 174.25392578 -95.55224609 175.14941406 C-96.03000488 175.76010742 -96.50776367 176.37080078 -97 177 C-97.99 177 -98.98 177 -100 177 C-82.39590289 142.51502019 -82.39590289 142.51502019 -74.19824219 127.66552734 C-70.18049364 120.37761547 -66.3344344 113.00735985 -62.50732422 105.61791992 C-58.56915164 98.03613202 -54.50750264 90.52755391 -50.359375 83.05859375 C-46.00049399 75.15812192 -42.00037238 67.0859262 -38 59 C-40.60928956 57.79278379 -43.21866653 56.58575729 -45.828125 55.37890625 C-46.64058182 55.00312439 -47.45303864 54.62734253 -48.29011536 54.24017334 C-52.74435783 52.18072961 -57.19994101 50.12425741 -61.65795898 48.07299805 C-63.44254578 47.25179082 -65.22713237 46.43058315 -67.01171875 45.609375 C-67.88875961 45.20588333 -68.76580048 44.80239166 -69.66941833 44.38667297 C-74.40326888 42.20604741 -79.12482384 40.00315149 -83.83203125 37.765625 C-84.74629883 37.33693115 -85.66056641 36.9082373 -86.60253906 36.46655273 C-88.18714536 35.72315913 -89.76644929 34.96830171 -91.33886719 34.19946289 C-95.61736849 32.21402446 -98.449609 31.55553907 -103 33 C-106.19806164 36.41126575 -106.6313177 40.07680944 -106.48828125 44.59375 C-105.57129586 49.11265399 -102.82142085 52.45381049 -100 56 C-99.40574219 56.80308594 -98.81148437 57.60617188 -98.19921875 58.43359375 C-95.60401471 61.46210007 -92.70226469 63.88280651 -89.5625 66.3125 C-88.95647949 66.78671387 -88.35045898 67.26092773 -87.72607422 67.74951172 C-82.50097006 71.76538908 -77.03597582 75.21524087 -71.3515625 78.5390625 C-70.57554687 79.02117187 -69.79953125 79.50328125 -69 80 C-69 80.33 -69 80.66 -69 81 C-75.3023385 81.5625632 -78.61302384 80.03980132 -83.6875 76.6875 C-84.38157959 76.24035645 -85.07565918 75.79321289 -85.79077148 75.33251953 C-96.96263962 67.93085181 -110.68175139 57.13360819 -115 44 C-115.79472729 39.65767563 -115.3106635 36.59913675 -113.25 32.625 C-111.19058525 30.22234945 -109.9359595 29.04855696 -107 28 C-107 27.34 -107 26.68 -107 26 C-108.22589844 25.62230469 -109.45179687 25.24460937 -110.71484375 24.85546875 C-116.87345086 22.80259971 -122.68751626 20.0569921 -128.5625 17.3125 C-129.66658203 16.80138672 -130.77066406 16.29027344 -131.90820312 15.76367188 C-134.60747498 14.5133598 -137.30464455 13.25872684 -140 12 C-140 11.67 -140 11.34 -140 11 C-134.39981807 11.51791359 -129.9241284 12.57968372 -124.68359375 14.7578125 C-123.32891979 15.30634473 -121.9740976 15.854511 -120.61914062 16.40234375 C-118.52133416 17.26349933 -116.42591536 18.12983601 -114.33325195 19.00341797 C-112.28888805 19.85250869 -110.23707834 20.68107292 -108.18359375 21.5078125 C-106.97243896 22.00941895 -105.76128418 22.51102539 -104.51342773 23.02783203 C-100.53023677 24.12998382 -98.01982351 23.79819253 -94 23 C-68.57649712 21.42711737 -44.94176493 26.71722074 -21 35 C-20.73356689 34.28376465 -20.46713379 33.5675293 -20.19262695 32.82958984 C-18.97584012 29.94267901 -17.54780377 27.40040879 -15.91796875 24.7265625 C-15.31533203 23.7365625 -14.71269531 22.7465625 -14.09179688 21.7265625 C-13.46337891 20.70304687 -12.83496094 19.67953125 -12.1875 18.625 C-11.57068359 17.60921875 -10.95386719 16.5934375 -10.31835938 15.546875 C-3.7021663 4.71909888 -3.7021663 4.71909888 0 0 Z M-90 27 C-90.33 27.66 -90.66 28.32 -91 29 C-85.63344702 31.15165113 -80.26639635 33.3020549 -74.89892578 35.45141602 C-73.0817388 36.17928241 -71.26467678 36.9074609 -69.44775391 37.63598633 C-57.32596864 42.49610444 -45.18186062 47.29239881 -33 52 C-29.06459567 48.12427727 -26.49089815 44.88954082 -24 40 C-24 39.34 -24 38.68 -24 38 C-45.6701605 29.94633882 -66.85151621 25.92876873 -90 27 Z M31 86 C31 86.66 31 87.32 31 88 C32.32 87.67 33.64 87.34 35 87 C33.68 86.67 32.36 86.34 31 86 Z M43 91 C42.34 93.31 41.68 95.62 41 98 C42.65 97.67 44.3 97.34 46 97 C46.33 95.35 46.66 93.7 47 92 C45.68 91.67 44.36 91.34 43 91 Z M63 92 C62.34 93.98 61.68 95.96 61 98 C61.99 98 62.98 98 64 98 C64 96.02 64 94.04 64 92 C63.67 92 63.34 92 63 92 Z M20 100 C20.99 101.485 20.99 101.485 22 103 C22.66 103 23.32 103 24 103 C24.33 102.01 24.66 101.02 25 100 C23.35 100 21.7 100 20 100 Z M9 109 C8.34 109.66 7.68 110.32 7 111 C8.65 112.65 10.3 114.3 12 116 C12.69159401 114.15274948 12.69159401 114.15274948 13 112 C12.34 111.01 11.68 110.02 11 109 C10.34 109 9.68 109 9 109 Z M30.4375 113.44921875 C29.60648289 114.51445565 28.79434092 115.59464064 28 116.6875 C24.67666937 121.09895341 21.36269665 124.58213155 17 128 C17.66 128.33 18.32 128.66 19 129 C28.05479895 125.25318664 34.66783189 119.84484322 39 111 C34.86758313 110.45341579 33.51900041 110.5039432 30.4375 113.44921875 Z " fill="#2A2A2A" transform="translate(214,14)"/>
<path d="M0 0 C0.66 0 1.32 0 2 0 C0.60784948 4.4986691 -1.17068876 8.60530974 -3.2578125 12.82421875 C-3.88942745 14.11257897 -4.52093475 15.40099196 -5.15234375 16.68945312 C-6.14236258 18.69834784 -7.13429644 20.70626706 -8.12841797 22.71313477 C-9.09325268 24.66439788 -10.05088836 26.61906699 -11.0078125 28.57421875 C-11.86850342 30.31578247 -11.86850342 30.31578247 -12.74658203 32.0925293 C-14.19794102 34.93146069 -14.19794102 34.93146069 -14 38 C-13.48840332 38.21503174 -12.97680664 38.43006348 -12.44970703 38.65161133 C8.87991612 47.70565386 34.97710992 59.95994236 47 81 C47 81.66 47 82.32 47 83 C43.6875 83.3125 43.6875 83.3125 40 83 C38.546875 80.80859375 38.546875 80.80859375 37 78 C24.08263436 61.82265403 4.44579391 49.11048222 -15 42 C-15.66 42 -16.32 42 -17 42 C-20.465 48.93 -20.465 48.93 -24 56 C-22.02 56.66 -20.04 57.32 -18 58 C-15.71019562 59.04425897 -13.43782623 60.12720502 -11.1796875 61.23828125 C-10.53113297 61.55554169 -9.88257843 61.87280212 -9.21437073 62.19967651 C-7.82250629 62.8806696 -6.431398 63.56320997 -5.04098511 64.24716187 C4.30482901 68.84389346 13.65959845 73.41880858 23.12109375 77.7734375 C23.75664185 78.06608994 24.39218994 78.35874237 25.04699707 78.66026306 C28.03212366 80.03207233 31.0210429 81.39497623 34.01416016 82.74926758 C39.97919078 85.4764598 45.53122389 88.37403572 51 92 C47.47164296 93.17611901 46.75539904 92.79273588 43.38208008 91.50024414 C42.4445842 91.14546494 41.50708832 90.79068573 40.54118347 90.42515564 C39.52341324 90.02833084 38.50564301 89.63150604 37.45703125 89.22265625 C36.39394241 88.81580093 35.33085358 88.40894562 34.23554993 87.98976135 C20.84983669 82.83909744 7.55941671 77.44424136 -5.72973633 72.05053711 C-9.02247747 70.71545063 -12.31769434 69.3866368 -15.61328125 68.05859375 C-16.61619705 67.64935165 -17.61911285 67.24010956 -18.65242004 66.81846619 C-19.57576645 66.44710037 -20.49911285 66.07573456 -21.45043945 65.69311523 C-22.25963333 65.36496323 -23.06882721 65.03681122 -23.90254211 64.69871521 C-26.10590858 63.84197516 -26.10590858 63.84197516 -29 64 C-30.44399533 65.98359972 -31.64772881 67.89042139 -32.8515625 70.015625 C-33.22265137 70.64952148 -33.59374023 71.28341797 -33.97607422 71.93652344 C-34.78003033 73.31264052 -35.57891746 74.69172851 -36.37335205 76.07336426 C-38.06620137 79.01725621 -39.78293097 81.94696566 -41.49813843 84.87786865 C-42.3791731 86.38415176 -43.25890013 87.89120042 -44.13735962 89.39898682 C-48.21817923 96.39984275 -52.40495182 103.33243277 -56.625 110.25 C-57.32304719 111.39648629 -58.02096357 112.54305224 -58.71875 113.68969727 C-60.11121949 115.97735179 -61.50448879 118.26451607 -62.8984375 120.55126953 C-66.12167427 125.83958029 -69.33830502 131.13190009 -72.55358887 136.42504883 C-73.61290634 138.16760616 -74.67398349 139.9090817 -75.73535156 141.65039062 C-79.30384093 147.51175129 -82.83010779 153.39425611 -86.296875 159.31640625 C-86.98982124 160.49404385 -87.68301332 161.67153682 -88.37646484 162.84887695 C-89.68303202 165.07240339 -90.98063394 167.30122869 -92.26806641 169.53588867 C-93.1369751 171.01085815 -93.1369751 171.01085815 -94.0234375 172.515625 C-94.52794434 173.38477539 -95.03245117 174.25392578 -95.55224609 175.14941406 C-96.03000488 175.76010742 -96.50776367 176.37080078 -97 177 C-97.99 177 -98.98 177 -100 177 C-82.39590289 142.51502019 -82.39590289 142.51502019 -74.19824219 127.66552734 C-70.18049364 120.37761547 -66.3344344 113.00735985 -62.50732422 105.61791992 C-58.56915164 98.03613202 -54.50750264 90.52755391 -50.359375 83.05859375 C-46.00049399 75.15812192 -42.00037238 67.0859262 -38 59 C-40.60928956 57.79278379 -43.21866653 56.58575729 -45.828125 55.37890625 C-46.64058182 55.00312439 -47.45303864 54.62734253 -48.29011536 54.24017334 C-52.74435783 52.18072961 -57.19994101 50.12425741 -61.65795898 48.07299805 C-63.44254578 47.25179082 -65.22713237 46.43058315 -67.01171875 45.609375 C-67.88875961 45.20588333 -68.76580048 44.80239166 -69.66941833 44.38667297 C-74.40326888 42.20604741 -79.12482384 40.00315149 -83.83203125 37.765625 C-84.74629883 37.33693115 -85.66056641 36.9082373 -86.60253906 36.46655273 C-88.18714536 35.72315913 -89.76644929 34.96830171 -91.33886719 34.19946289 C-95.61736849 32.21402446 -98.449609 31.55553907 -103 33 C-106.19806164 36.41126575 -106.6313177 40.07680944 -106.48828125 44.59375 C-105.57129586 49.11265399 -102.82142085 52.45381049 -100 56 C-99.40574219 56.80308594 -98.81148437 57.60617188 -98.19921875 58.43359375 C-95.60401471 61.46210007 -92.70226469 63.88280651 -89.5625 66.3125 C-88.95647949 66.78671387 -88.35045898 67.26092773 -87.72607422 67.74951172 C-82.50097006 71.76538908 -77.03597582 75.21524087 -71.3515625 78.5390625 C-70.57554687 79.02117187 -69.79953125 79.50328125 -69 80 C-69 80.33 -69 80.66 -69 81 C-75.3023385 81.5625632 -78.61302384 80.03980132 -83.6875 76.6875 C-84.38157959 76.24035645 -85.07565918 75.79321289 -85.79077148 75.33251953 C-96.96263962 67.93085181 -110.68175139 57.13360819 -115 44 C-115.79472729 39.65767563 -115.3106635 36.59913675 -113.25 32.625 C-111.19058525 30.22234945 -109.9359595 29.04855696 -107 28 C-107 27.34 -107 26.68 -107 26 C-108.22589844 25.62230469 -109.45179687 25.24460937 -110.71484375 24.85546875 C-116.87345086 22.80259971 -122.68751626 20.0569921 -128.5625 17.3125 C-129.66658203 16.80138672 -130.77066406 16.29027344 -131.90820312 15.76367188 C-134.60747498 14.5133598 -137.30464455 13.25872684 -140 12 C-140 11.67 -140 11.34 -140 11 C-134.39981807 11.51791359 -129.9241284 12.57968372 -124.68359375 14.7578125 C-123.32891979 15.30634473 -121.9740976 15.854511 -120.61914062 16.40234375 C-118.52133416 17.26349933 -116.42591536 18.12983601 -114.33325195 19.00341797 C-112.28888805 19.85250869 -110.23707834 20.68107292 -108.18359375 21.5078125 C-106.97243896 22.00941895 -105.76128418 22.51102539 -104.51342773 23.02783203 C-100.53023677 24.12998382 -98.01982351 23.79819253 -94 23 C-68.57649712 21.42711737 -44.94176493 26.71722074 -21 35 C-20.73356689 34.28376465 -20.46713379 33.5675293 -20.19262695 32.82958984 C-18.97584012 29.94267901 -17.54780377 27.40040879 -15.91796875 24.7265625 C-15.31533203 23.7365625 -14.71269531 22.7465625 -14.09179688 21.7265625 C-13.46337891 20.70304687 -12.83496094 19.67953125 -12.1875 18.625 C-11.57068359 17.60921875 -10.95386719 16.5934375 -10.31835938 15.546875 C-3.7021663 4.71909888 -3.7021663 4.71909888 0 0 Z M-90 27 C-90.33 27.66 -90.66 28.32 -91 29 C-85.63344702 31.15165113 -80.26639635 33.3020549 -74.89892578 35.45141602 C-73.0817388 36.17928241 -71.26467678 36.9074609 -69.44775391 37.63598633 C-57.32596864 42.49610444 -45.18186062 47.29239881 -33 52 C-29.06459567 48.12427727 -26.49089815 44.88954082 -24 40 C-24 39.34 -24 38.68 -24 38 C-45.6701605 29.94633882 -66.85151621 25.92876873 -90 27 Z " fill="#1189F9" transform="translate(214,14)"/>
<path d="M0 0 C4.29 0 8.58 0 13 0 C13.495 1.485 13.495 1.485 14 3 C15.32 3.33 16.64 3.66 18 4 C18.99 8.62 19.98 13.24 21 18 C11.375 23 11.375 23 8 23 C7.34 22.01 6.68 21.02 6 20 C5.34 21.32 4.68 22.64 4 24 C8.62 24 13.24 24 18 24 C17.07988583 28.60057086 15.89559434 31.79672559 14 36 C9.05 36 4.1 36 -1 36 C-1.08156579 39.64629287 -1.14077504 43.29072832 -1.1875 46.9375 C-1.21263672 47.95908203 -1.23777344 48.98066406 -1.26367188 50.03320312 C-1.32003061 55.91329794 -0.85873448 60.62431468 1.44799805 66.06469727 C2.12907273 68.45252521 1.88290238 69.6970615 1 72 C-1.14453125 74.17578125 -1.14453125 74.17578125 -3.8125 76.3125 C-4.68519531 77.03050781 -5.55789062 77.74851562 -6.45703125 78.48828125 C-9 80 -9 80 -11.32421875 79.73046875 C-11.87722656 79.48941406 -12.43023437 79.24835938 -13 79 C-13.48301203 77.29274992 -13.96121958 75.58414026 -14.4375 73.875 C-14.70433594 72.92367187 -14.97117188 71.97234375 -15.24609375 70.9921875 C-15.9981761 68.00723889 -16.53517499 65.04167044 -17 62 C-17.56847656 62.64066406 -18.13695312 63.28132813 -18.72265625 63.94140625 C-21.13325093 66.64175521 -23.56178379 69.32457296 -26 72 C-26.65355469 72.721875 -27.30710938 73.44375 -27.98046875 74.1875 C-30.38873261 76.73930276 -32.42665872 78.70633739 -35.5625 80.3125 C-39.51480319 79.80579446 -41.51681321 76.94398434 -44 74 C-44.92232422 74.34224609 -44.92232422 74.34224609 -45.86328125 74.69140625 C-46.67152344 74.97886719 -47.47976562 75.26632813 -48.3125 75.5625 C-49.51326172 75.99755859 -49.51326172 75.99755859 -50.73828125 76.44140625 C-53 77 -53 77 -56 76 C-53.62730446 72.18606139 -51.25142062 68.37411847 -48.875 64.5625 C-48.20984375 63.49322266 -47.5446875 62.42394531 -46.859375 61.32226562 C-43.40717767 55.78859638 -39.91635398 50.29948243 -36.23095703 44.91772461 C-35.00046481 43.00072414 -33.97972691 41.05479253 -33 39 C-30.69 39 -28.38 39 -26 39 C-26.64100708 43.3680998 -27.63914353 47.46906635 -28.9375 51.6875 C-29.27652344 52.80511719 -29.61554688 53.92273438 -29.96484375 55.07421875 C-31 58 -31 58 -33 61 C-34.485 61.495 -34.485 61.495 -36 62 C-35.67 62.66 -35.34 63.32 -35 64 C-26.83695216 55.79751714 -20.18316885 46.3663377 -15 36 C-16.299375 36.144375 -17.59875 36.28875 -18.9375 36.4375 C-19.66839844 36.51871094 -20.39929688 36.59992188 -21.15234375 36.68359375 C-23.01140229 36.81886614 -23.01140229 36.81886614 -24 38 C-26.33297433 38.04092937 -28.66705225 38.04241723 -31 38 C-29.71188239 34.55603224 -28.21630775 31.5301821 -26.25 28.42578125 C-25.46109375 27.17764648 -25.46109375 27.17764648 -24.65625 25.90429688 C-24.1096875 25.04900391 -23.563125 24.19371094 -23 23.3125 C-22.4534375 22.44560547 -21.906875 21.57871094 -21.34375 20.68554688 C-17.26932303 14.26932303 -17.26932303 14.26932303 -15 12 C-13.78613064 15.64160808 -14.3325305 16.33165469 -15.9375 19.6875 C-16.50791016 20.89986328 -16.50791016 20.89986328 -17.08984375 22.13671875 C-17.39019531 22.75160156 -17.69054687 23.36648437 -18 24 C-15.03 24 -12.06 24 -9 24 C-8.62875 22.824375 -8.2575 21.64875 -7.875 20.4375 C-5.57445174 13.50251395 -2.75380261 6.76419476 0 0 Z " fill="#2A2A2A" transform="translate(185,98)"/>
<path d="M0 0 C5.94 0 11.88 0 18 0 C15.85366507 7.55868052 13.22912855 14.78691206 10.2890625 22.0703125 C9.6140419 23.75191971 9.6140419 23.75191971 8.92538452 25.46749878 C7.97794343 27.82317021 7.02816844 30.17790417 6.07617188 32.53173828 C4.62785663 36.11792668 3.19251022 39.70912696 1.7578125 43.30078125 C0.83151491 45.59927515 -0.09554287 47.89746286 -1.0234375 50.1953125 C-1.44756927 51.2600882 -1.87170105 52.32486389 -2.3086853 53.42190552 C-8.94951847 69.73691815 -8.94951847 69.73691815 -16 74 C-22.12990635 75.89236359 -27.61317687 76.25254025 -34 76.125 C-35.30517578 76.11146484 -35.30517578 76.11146484 -36.63671875 76.09765625 C-38.7579342 76.07434619 -40.87900562 76.03848579 -43 76 C-42.22377978 70.36218996 -40.40701111 66.1246043 -38 61 C-33.38 60.67 -28.76 60.34 -24 60 C-16.08 40.2 -8.16 20.4 0 0 Z " fill="#1189FA" transform="translate(80,101)"/>
<path d="M0 0 C6.93 0 13.86 0 21 0 C15.2461733 12.34457366 9.27226231 24.56620979 3.1875 36.75 C2.81392365 37.49965027 2.44034729 38.24930054 2.05545044 39.02166748 C0.97029894 41.197917 -0.11784856 43.37264069 -1.20703125 45.546875 C-1.52972992 46.19425629 -1.85242859 46.84163757 -2.18490601 47.50863647 C-3.10873905 49.34706693 -4.04840533 51.1757952 -5 53 C-5.33945648 53.655448 -5.67891296 54.310896 -6.02865601 54.98620605 C-8.67399321 59.88886132 -8.67399321 59.88886132 -11.75 60.9375 C-12.4925 60.958125 -13.235 60.97875 -14 61 C-12.68 61.33 -11.36 61.66 -10 62 C-10.89917418 63.98717494 -11.8199462 65.96458885 -12.75 67.9375 C-13.26046875 69.03964844 -13.7709375 70.14179688 -14.296875 71.27734375 C-16 74 -16 74 -18.09375 74.75 C-18.7228125 74.8325 -19.351875 74.915 -20 75 C-21.75422772 76.97670607 -21.75422772 76.97670607 -23 79 C-26.71888239 78.49287967 -29.73454239 77.88391785 -33 76 C-31.43632643 72.47761953 -29.30504111 69.72876006 -26.875 66.75 C-26.15054688 65.85796875 -25.42609375 64.9659375 -24.6796875 64.046875 C-23.84824219 63.03367187 -23.84824219 63.03367187 -23 62 C-23.66 61.67 -24.32 61.34 -25 61 C-24.52309796 59.37433394 -24.04340334 57.74948689 -23.5625 56.125 C-23.29566406 55.22007812 -23.02882813 54.31515625 -22.75390625 53.3828125 C-22 51 -22 51 -21 49 C-19.515 48.505 -19.515 48.505 -18 48 C-17.25827029 46.02205412 -16.54412467 44.0316406 -15.92578125 42.01171875 C-11.51696885 27.6691265 -5.77011582 13.8354555 0 0 Z M2 25 C2 25.66 2 26.32 2 27 C2.66 27 3.32 27 4 27 C4 26.34 4 25.68 4 25 C3.34 25 2.68 25 2 25 Z " fill="#2A2A2A" transform="translate(137,100)"/>
<path d="M0 0 C5.61 0 11.22 0 17 0 C14.125 7.5625 14.125 7.5625 13.23095703 9.90063477 C10.71159528 16.57498712 8.45334884 22.75687218 9 30 C9.36270996 30.64356445 9.72541992 31.28712891 10.09912109 31.95019531 C11 34 11 34 10.58447266 36.01464844 C10.2807373 36.7059082 9.97700195 37.39716797 9.6640625 38.109375 C9.34179688 38.86347656 9.01953125 39.61757812 8.6875 40.39453125 C8.1615625 41.56048828 8.1615625 41.56048828 7.625 42.75 C7.28210938 43.54277344 6.93921875 44.33554688 6.5859375 45.15234375 C5.73785363 47.10764822 4.87072523 49.05467242 4 51 C-0.1425994 50.51952878 -2.70545748 49.94448328 -5.8125 47.125 C-6.68841797 46.35542969 -6.68841797 46.35542969 -7.58203125 45.5703125 C-11.21542633 41.54655266 -10.5268656 35.44748689 -10.41796875 30.328125 C-9.94285586 22.81550955 -6.8855867 15.8700135 -4 9 C-3.36191406 7.47826172 -3.36191406 7.47826172 -2.7109375 5.92578125 C-1.84210325 3.93496319 -0.92833203 1.9637793 0 0 Z " fill="#1189FA" transform="translate(100,112)"/>
<path d="M0 0 C5.61 0 11.22 0 17 0 C10.29938038 19.0709943 3.11671366 38.48842143 -16 48 C-19.8360033 49.83461028 -22.75366323 50.19750404 -27 50 C-26.17576819 47.40351884 -25.3181616 44.82732863 -24.4375 42.25 C-24.20998047 41.52039063 -23.98246094 40.79078125 -23.74804688 40.0390625 C-22.36435332 36.08565234 -21.35988213 33.83664997 -17.5390625 31.91015625 C-16.92957764 31.6167334 -16.32009277 31.32331055 -15.69213867 31.02099609 C-12.69773603 29.214245 -11.40081949 26.23437402 -9.9375 23.1875 C-9.60878906 22.53966553 -9.28007813 21.89183105 -8.94140625 21.22436523 C-5.5147019 14.32530034 -2.7406341 7.19416451 0 0 Z " fill="#118AFA" transform="translate(52,112)"/>
<path d="M0 0 C2.5502402 0.91547084 3.7299841 1.80800707 5.4375 3.875 C4.261875 4.49375 4.261875 4.49375 3.0625 5.125 C0.25386708 6.99742195 -0.33763683 7.83491168 -1.5625 10.875 C-2.62829298 16.23470892 -1.81703544 20.08026078 1.1875 24.625 C2.24214459 26.06315171 3.3271427 27.4794133 4.4375 28.875 C5.03175781 29.67808594 5.62601563 30.48117188 6.23828125 31.30859375 C8.83348529 34.33710007 11.73523531 36.75780651 14.875 39.1875 C15.48102051 39.66171387 16.08704102 40.13592773 16.71142578 40.62451172 C21.93652994 44.64038908 27.40152418 48.09024087 33.0859375 51.4140625 C34.24996094 52.13722656 34.24996094 52.13722656 35.4375 52.875 C35.4375 53.205 35.4375 53.535 35.4375 53.875 C29.1351615 54.4375632 25.82447616 52.91480132 20.75 49.5625 C19.70888062 48.89178467 19.70888062 48.89178467 18.64672852 48.20751953 C7.47486038 40.80585181 -6.24425139 30.00860819 -10.5625 16.875 C-11.35344909 12.55331943 -10.89530384 9.50495012 -8.8125 5.5625 C-3.99247275 -0.19475477 -3.99247275 -0.19475477 0 0 Z " fill="#2A2A2A" transform="translate(109.5625,41.125)"/>
<path d="M0 0 C5.53341671 0.53109317 9.82710827 1.95767977 14.8125 4.375 C15.54098145 4.7244165 16.26946289 5.07383301 17.02001953 5.43383789 C34.46492708 14.00741257 55.06779247 25.61863683 65 43 C65 43.66 65 44.32 65 45 C61.6875 45.3125 61.6875 45.3125 58 45 C56.546875 42.80859375 56.546875 42.80859375 55 40 C41.0024044 22.46980437 20.69229359 11.00012003 0 3 C0 2.01 0 1.02 0 0 Z " fill="#2A2A2B" transform="translate(196,52)"/>
<path d="M0 0 C0 0.99 0 1.98 0 3 C-5.86375586 2.34847157 -11.23848782 0.83090228 -16.875 -0.875 C-33.19325082 -5.59132264 -47.85940594 -7.37166058 -64.84545898 -6.89013672 C-66.72599976 -6.85170654 -66.72599976 -6.85170654 -68.64453125 -6.8125 C-70.33606323 -6.76029297 -70.33606323 -6.76029297 -72.06176758 -6.70703125 C-75.32164964 -7.03207142 -76.63132356 -7.80054051 -79 -10 C-55.36200567 -18.19494002 -22.1583833 -9.17904669 0 0 Z " fill="#2A2B2C" transform="translate(192,49)"/>
<path d="M0 0 C-1.2202256 6.28416183 -4.20645115 11.77959286 -9 16 C-14.53763286 17.49293735 -20.38512688 16.68909806 -26 16 C-24.55445295 13.80932561 -23.09986953 11.62928336 -21.609375 9.46875 C-19.98823698 7.1158663 -19.98823698 7.1158663 -19.015625 4.84375 C-15.34864398 -2.49021204 -7.05031532 -0.55870423 0 0 Z " fill="#2A2A2A" transform="translate(214,159)"/>
<path d="M0 0 C1.39456867 0.00574201 2.78910972 0.01875397 4.18359375 0.03515625 C6.63796875 0.05578125 9.09234375 0.07640625 11.62109375 0.09765625 C11.29109375 5.37765625 10.96109375 10.65765625 10.62109375 16.09765625 C5.34109375 16.09765625 0.06109375 16.09765625 -5.37890625 16.09765625 C-5.23453125 13.64328125 -5.09015625 11.18890625 -4.94140625 8.66015625 C-4.89830322 7.88615479 -4.8552002 7.11215332 -4.81079102 6.31469727 C-4.42210735 0.12780657 -4.42210735 0.12780657 0 0 Z " fill="#2A2A2A" transform="translate(257.37890625,158.90234375)"/>
<path d="M0 0 C4.95 0 9.9 0 15 0 C13.74703435 6.26482827 11.14403762 10.44776335 8 16 C2.72 16 -2.56 16 -8 16 C-5.36 10.72 -2.72 5.44 0 0 Z " fill="#292929" transform="translate(217,159)"/>
<path d="M0 0 C4.95 0 9.9 0 15 0 C14.52546129 2.48013629 14.04561015 4.95903256 13.5625 7.4375 C13.42779297 8.14455078 13.29308594 8.85160156 13.15429688 9.58007812 C12.11328125 14.88671875 12.11328125 14.88671875 11 16 C8.3013095 16.07325436 5.63497444 16.09222351 2.9375 16.0625 C0.318125 16.041875 -2.30125 16.02125 -5 16 C-3.35 10.72 -1.7 5.44 0 0 Z " fill="#2A2A2A" transform="translate(236,159)"/>
<path d="M0 0 C4.31392226 0.4793247 6.16569547 1.7457985 9 5 C4.545 4.01 4.545 4.01 0 3 C0 2.01 0 1.02 0 0 Z " fill="#127DE1" transform="translate(256,102)"/>
<path d="M0 0 C2 1 2 1 2 1 Z " fill="#191919" transform="translate(118,175)"/>
<path d="M0 0 C2 1 2 1 2 1 Z " fill="#202020" transform="translate(170,109)"/>
</svg>
